<?xml version="1.0" encoding="UTF-8"?>
<svg id="Calque_1" data-name="Calque 1" xmlns="http://www.w3.org/2000/svg" viewBox="0 0 841.89 321.09">
  <defs>
    <style>
      .cls-1 {
        fill: #fffdf6;
      }
    </style>
  </defs>
  <path class="cls-1" d="M663.05,130.74V12.26h28.36v118.78c0,18.47,7.08,24.94,24.35,24.94h109.69v25.85h-112.15c-33.61,0-50.26-16-50.26-51.09"/>
  <g>
    <path class="cls-1" d="M16.22,17.37h25.3l.31,24.95c11.41-17.55,33.63-28.03,57.99-28.03,44.42,0,80.82,34.8,80.82,84.39s-36.4,84.39-80.82,84.39c-22.83,0-44.11-9.55-56.14-25.25.62,12.01.93,24.33.93,36.03v47.12h-28.38V17.37ZM96.12,156.57c32.39,0,55.84-24.02,55.84-57.9s-23.44-58.21-55.84-58.21c-29.61,0-53.98,20.94-53.98,58.21s24.37,57.9,53.98,57.9Z"/>
    <path class="cls-1" d="M275.33,183.68c-40.1,0-64.17-25.56-64.17-68.68V17.37h28.38v96.71c0,27.72,12.65,42.81,35.78,42.81s36.09-15.09,36.09-42.81V17.37h28.38v97.63c0,43.12-23.75,68.68-64.47,68.68Z"/>
    <path class="cls-1" d="M428.95,17.37h18.2v25.87h-15.73c-17.28,0-24.37,6.47-24.37,24.95v111.8h-28.38v-111.49c0-35.11,16.66-51.12,50.28-51.12Z"/>
    <path class="cls-1" d="M472.75,17.37h25.3l.31,24.95c11.41-17.55,33.63-28.03,57.99-28.03,44.42,0,80.82,34.8,80.82,84.39s-36.4,84.39-80.82,84.39c-22.83,0-44.11-9.55-56.14-25.25.62,12.01.93,24.33.93,36.03v47.12h-28.38V17.37ZM552.65,156.57c32.39,0,55.84-24.02,55.84-57.9s-23.44-58.21-55.84-58.21c-29.61,0-53.98,20.94-53.98,58.21s24.37,57.9,53.98,57.9Z"/>
  </g>
</svg>