<?xml version="1.0" encoding="UTF-8" standalone="no"?>
<!DOCTYPE svg PUBLIC "-//W3C//DTD SVG 1.1//EN" "http://www.w3.org/Graphics/SVG/1.1/DTD/svg11.dtd">
<svg width="100%" height="100%" viewBox="0 0 4497 1508" version="1.1" xmlns="http://www.w3.org/2000/svg" xmlns:xlink="http://www.w3.org/1999/xlink" xml:space="preserve" xmlns:serif="http://www.serif.com/" style="fill-rule:evenodd;clip-rule:evenodd;stroke-linejoin:round;stroke-miterlimit:2;">
    <g transform="matrix(5.55556,0,0,5.55556,3593.49,283.844)">
        <path d="M0,67.388L0,-51.092L28.364,-51.092L28.364,67.689C28.364,86.16 35.448,92.626 52.717,92.626L162.412,92.626L162.412,118.48L50.261,118.48C16.647,118.48 0,102.478 0,67.388" style="fill:rgb(255,253,246);fill-rule:nonzero;"/>
    </g>
    <g transform="matrix(5.55556,0,0,5.55556,443.872,480.088)">
        <path d="M0,57.9C32.392,57.9 55.836,33.878 55.836,0C55.836,-34.186 32.392,-58.209 0,-58.209C-29.615,-58.209 -53.984,-37.266 -53.984,0C-53.984,37.265 -29.615,57.9 0,57.9M-79.897,-81.307L-54.601,-81.307L-54.293,-56.361C-42.879,-73.916 -20.668,-84.387 3.702,-84.387C48.124,-84.387 84.525,-49.585 84.525,0C84.525,49.585 48.124,84.386 3.702,84.386C-19.126,84.386 -40.411,74.839 -52.442,59.132C-51.825,71.143 -51.517,83.462 -51.517,95.166L-51.517,142.287L-79.897,142.287L-79.897,-81.307Z" style="fill:rgb(255,253,246);fill-rule:nonzero;"/>
    </g>
    <g transform="matrix(5.55556,0,0,5.55556,1439.53,28.3839)">
        <path d="M0,166.309C-40.103,166.309 -64.165,140.747 -64.165,97.629L-64.165,0L-35.784,0L-35.784,96.705C-35.784,124.424 -23.136,139.515 0,139.515C23.445,139.515 36.093,124.424 36.093,96.705L36.093,0L64.473,0L64.473,97.629C64.473,140.747 40.719,166.309 0,166.309" style="fill:rgb(255,253,246);fill-rule:nonzero;"/>
    </g>
    <g transform="matrix(5.55556,0,0,5.55556,2292.95,931.792)">
        <path d="M0,-162.614L18.2,-162.614L18.2,-136.744L2.468,-136.744C-14.808,-136.744 -21.903,-130.276 -21.903,-111.797L-21.903,0L-50.283,0L-50.283,-111.489C-50.283,-146.599 -33.625,-162.614 0,-162.614" style="fill:rgb(255,253,246);fill-rule:nonzero;"/>
    </g>
    <g transform="matrix(5.55556,0,0,5.55556,2980.15,480.088)">
        <path d="M0,57.9C32.391,57.9 55.836,33.878 55.836,0C55.836,-34.186 32.391,-58.209 0,-58.209C-29.615,-58.209 -53.984,-37.266 -53.984,0C-53.984,37.265 -29.615,57.9 0,57.9M-79.897,-81.307L-54.601,-81.307L-54.293,-56.361C-42.879,-73.916 -20.668,-84.387 3.702,-84.387C48.124,-84.387 84.525,-49.585 84.525,0C84.525,49.585 48.124,84.386 3.702,84.386C-19.126,84.386 -40.411,74.839 -52.442,59.132C-51.825,71.143 -51.517,83.462 -51.517,95.166L-51.517,142.287L-79.897,142.287L-79.897,-81.307Z" style="fill:rgb(255,253,246);fill-rule:nonzero;"/>
    </g>
    <g transform="matrix(1.07056,0,0,3.07784,-317.29,-2429.17)">
        <path d="M3111.07,1279.02L3061.43,1279.02L3061.43,1158.16L3116.03,1158.16L3239.63,1256.06L3362.73,1158.16L3416.84,1158.16L3416.84,1279.02L3367.7,1279.02L3367.7,1191.66L3257.5,1279.02L3221.27,1279.02L3111.07,1191.66L3111.07,1279.02Z" style="fill:white;fill-rule:nonzero;"/>
        <path d="M3641.7,1154.54L3641.7,1167.66L3545.9,1184.75L3545.9,1173.53L3641.7,1154.54ZM3599.51,1280.23C3575.68,1280.23 3554.58,1278.3 3536.22,1274.44C3517.85,1270.59 3503.46,1265.26 3493.03,1258.47C3482.61,1251.68 3477.4,1243.91 3477.4,1235.16C3477.4,1226.76 3482.53,1219.28 3492.78,1212.72C3503.04,1206.16 3517.19,1200.98 3535.22,1197.18C3553.26,1193.38 3573.69,1191.48 3596.53,1191.48C3619.69,1191.48 3640.21,1193.24 3658.08,1196.75C3675.95,1200.26 3689.85,1205.15 3699.77,1211.42C3709.7,1217.7 3714.5,1224.92 3714.17,1233.09C3714.17,1234.47 3714,1235.88 3713.67,1237.32C3713.34,1238.76 3712.85,1240.35 3712.18,1242.07L3528.52,1242.07C3529.52,1246.67 3533.24,1250.73 3539.69,1254.24C3546.14,1257.75 3554.42,1260.49 3564.51,1262.44C3574.6,1264.4 3586.1,1265.38 3599.01,1265.38C3615.56,1265.38 3629.95,1264.26 3642.19,1262.01C3654.44,1259.77 3663.04,1256.75 3668.01,1252.95L3708.71,1257.95C3698.78,1264.98 3684.3,1270.44 3665.28,1274.36C3646.25,1278.27 3624.33,1280.23 3599.51,1280.23ZM3663.04,1228.09C3663.04,1223.94 3660.06,1220.2 3654.11,1216.86C3648.15,1213.53 3640.13,1210.91 3630.03,1209.01C3619.94,1207.11 3608.61,1206.16 3596.03,1206.16C3584.78,1206.16 3574.44,1207.11 3565.01,1209.01C3555.58,1210.91 3547.64,1213.5 3541.18,1216.78C3534.73,1220.06 3530.68,1223.83 3529.02,1228.09L3663.04,1228.09Z" style="fill:white;fill-rule:nonzero;"/>
        <path d="M3778.7,1192.69L3778.7,1168.52L3825.85,1168.52L3825.85,1192.69L3887.9,1192.69L3887.9,1207.19L3825.85,1207.19L3825.85,1249.67C3825.85,1254.96 3828.91,1258.7 3835.04,1260.89C3841.16,1263.08 3848.93,1264.32 3858.37,1264.6C3867.8,1264.89 3877.64,1264.8 3887.9,1264.34L3887.9,1278.33C3874.33,1279.36 3861.01,1279.68 3847.94,1279.28C3834.87,1278.88 3823.12,1277.58 3812.7,1275.39C3802.28,1273.21 3794,1270.01 3787.88,1265.81C3781.76,1261.61 3778.7,1256.23 3778.7,1249.67L3778.7,1207.19L3742.96,1207.19L3742.96,1192.69L3778.7,1192.69Z" style="fill:white;fill-rule:nonzero;"/>
        <path d="M3947.47,1192.69L3994.62,1192.69L3994.62,1279.02L3947.47,1279.02L3947.47,1192.69ZM3971.29,1177.5C3962.36,1177.5 3954.91,1176.46 3948.95,1174.39C3943,1172.32 3940.02,1169.79 3940.02,1166.79C3940.02,1163.69 3943,1161.07 3948.95,1158.94C3954.91,1156.81 3962.36,1155.74 3971.29,1155.74C3979.9,1155.74 3987.26,1156.81 3993.38,1158.94C3999.5,1161.07 4002.56,1163.69 4002.56,1166.79C4002.56,1169.79 3999.5,1172.32 3993.38,1174.39C3987.26,1176.46 3979.9,1177.5 3971.29,1177.5Z" style="fill:white;fill-rule:nonzero;"/>
        <path d="M4180.76,1280.23C4156.94,1280.23 4135.84,1278.3 4117.48,1274.44C4099.11,1270.59 4084.71,1265.26 4074.29,1258.47C4063.87,1251.68 4058.66,1243.91 4058.66,1235.16C4058.66,1226.76 4063.78,1219.28 4074.04,1212.72C4084.3,1206.16 4098.45,1200.98 4116.48,1197.18C4134.52,1193.38 4154.95,1191.48 4177.78,1191.48C4200.95,1191.48 4221.47,1193.24 4239.34,1196.75C4257.2,1200.26 4271.1,1205.15 4281.03,1211.42C4290.96,1217.7 4295.76,1224.92 4295.43,1233.09C4295.43,1234.47 4295.26,1235.88 4294.93,1237.32C4294.6,1238.76 4294.1,1240.35 4293.44,1242.07L4109.78,1242.07C4110.77,1246.67 4114.5,1250.73 4120.95,1254.24C4127.4,1257.75 4135.68,1260.49 4145.77,1262.44C4155.86,1264.4 4167.36,1265.38 4180.27,1265.38C4196.81,1265.38 4211.21,1264.26 4223.45,1262.01C4235.7,1259.77 4244.3,1256.75 4249.26,1252.95L4289.97,1257.95C4280.04,1264.98 4265.56,1270.44 4246.53,1274.36C4227.51,1278.27 4205.58,1280.23 4180.76,1280.23ZM4244.3,1228.09C4244.3,1223.94 4241.32,1220.2 4235.36,1216.86C4229.41,1213.53 4221.38,1210.91 4211.29,1209.01C4201.2,1207.11 4189.86,1206.16 4177.29,1206.16C4166.04,1206.16 4155.7,1207.11 4146.27,1209.01C4136.83,1210.91 4128.89,1213.5 4122.44,1216.78C4115.99,1220.06 4111.93,1223.83 4110.28,1228.09L4244.3,1228.09Z" style="fill:white;fill-rule:nonzero;"/>
        <path d="M4352.51,1192.69L4395.2,1192.69L4398.18,1204.26C4405.13,1201.27 4413.15,1198.76 4422.25,1196.75C4431.35,1194.74 4441.28,1193.33 4452.03,1192.52C4462.79,1191.71 4473.96,1191.77 4485.54,1192.69L4485.54,1208.06C4474.62,1207.14 4464.03,1207.02 4453.77,1207.71C4443.51,1208.4 4434.33,1209.87 4426.22,1212.12C4418.11,1214.36 4411.58,1217.32 4406.61,1221.01C4401.65,1224.69 4399.17,1229.12 4399.17,1234.3L4399.17,1279.02L4352.51,1279.02L4352.51,1192.69Z" style="fill:white;fill-rule:nonzero;"/>
    </g>
</svg>
