<?xml version="1.0" encoding="UTF-8"?>
<svg id="Calque_1" data-name="Calque 1" xmlns="http://www.w3.org/2000/svg" viewBox="0 0 841.89 321.09">
  <defs>
    <style>
      .cls-1 {
        fill: #777158;
      }
    </style>
  </defs>
  <path class="cls-1" d="M661.84,133.14V14.66h28.36v118.78c0,18.47,7.08,24.94,24.35,24.94h109.69v25.85h-112.15c-33.61,0-50.26-16-50.26-51.09"/>
  <g>
    <path class="cls-1" d="M15.02,19.77h25.3l.31,24.95c11.41-17.55,33.63-28.03,57.99-28.03,44.42,0,80.82,34.8,80.82,84.39s-36.4,84.39-80.82,84.39c-22.83,0-44.11-9.55-56.14-25.25.62,12.01.93,24.33.93,36.03v47.12H15.02V19.77ZM94.91,158.98c32.39,0,55.84-24.02,55.84-57.9s-23.44-58.21-55.84-58.21c-29.61,0-53.98,20.94-53.98,58.21s24.37,57.9,53.98,57.9Z"/>
    <path class="cls-1" d="M274.13,186.08c-40.1,0-64.17-25.56-64.17-68.68V19.77h28.38v96.71c0,27.72,12.65,42.81,35.78,42.81s36.09-15.09,36.09-42.81V19.77h28.38v97.63c0,43.12-23.75,68.68-64.47,68.68Z"/>
    <path class="cls-1" d="M427.75,19.77h18.2v25.87h-15.73c-17.28,0-24.37,6.47-24.37,24.95v111.8h-28.38v-111.49c0-35.11,16.66-51.12,50.28-51.12Z"/>
    <path class="cls-1" d="M471.55,19.77h25.3l.31,24.95c11.41-17.55,33.63-28.03,57.99-28.03,44.42,0,80.82,34.8,80.82,84.39s-36.4,84.39-80.82,84.39c-22.83,0-44.11-9.55-56.14-25.25.62,12.01.93,24.33.93,36.03v47.12h-28.38V19.77ZM551.44,158.98c32.39,0,55.84-24.02,55.84-57.9s-23.44-58.21-55.84-58.21c-29.61,0-53.98,20.94-53.98,58.21s24.37,57.9,53.98,57.9Z"/>
  </g>
  <g>
    <path class="cls-1" d="M562.11,244.67h-3.09v-21.55h3.4l7.7,17.45,7.67-17.45h3.37v21.55h-3.06v-15.57l-6.86,15.57h-2.26l-6.86-15.57v15.57Z"/>
    <path class="cls-1" d="M592.6,244.89c-1.46,0-2.78-.32-3.94-.97-1.17-.65-2.08-1.56-2.74-2.74-.66-1.18-.99-2.57-.99-4.17s.34-3.03,1.02-4.22c.68-1.19,1.61-2.11,2.78-2.76,1.18-.65,2.49-.97,3.96-.97s2.79.32,3.97.97c1.19.65,2.12,1.56,2.8,2.74s1.02,2.57,1.02,4.17-.34,3.03-1.04,4.22c-.69,1.19-1.63,2.11-2.83,2.76-1.2.65-2.54.97-4.02.97ZM592.57,242.24c.82,0,1.6-.19,2.32-.57.72-.38,1.31-.96,1.78-1.74.46-.78.7-1.77.7-2.99s-.22-2.17-.66-2.94c-.44-.77-1.03-1.34-1.75-1.72-.72-.38-1.5-.57-2.32-.57s-1.55.19-2.24.57c-.69.38-1.25.96-1.69,1.74-.43.78-.65,1.77-.65,2.99s.21,2.17.63,2.94c.42.77.97,1.34,1.65,1.72.68.38,1.42.57,2.23.57Z"/>
    <path class="cls-1" d="M606.64,231.9c.47-.8,1.18-1.47,2.12-2.02.94-.54,2.08-.82,3.42-.82s2.63.33,3.68.98c1.05.66,1.87,1.58,2.46,2.77s.88,2.58.88,4.15-.3,2.97-.9,4.15c-.6,1.19-1.42,2.11-2.47,2.77-1.05.66-2.27.98-3.65.98-1.26,0-2.32-.25-3.2-.74-.88-.49-1.56-1.09-2.06-1.78l-.22,2.31h-2.66v-22.16h2.91v9.48l-.31-.09ZM616.04,236.98c0-1.58-.42-2.85-1.25-3.82s-1.92-1.45-3.26-1.45c-.87,0-1.64.21-2.32.63s-1.23,1.02-1.64,1.8c-.41.78-.62,1.72-.62,2.83s.21,2.06.62,2.85c.41.79.96,1.39,1.64,1.8s1.45.62,2.32.62c1.34,0,2.43-.48,3.26-1.45.83-.96,1.25-2.24,1.25-3.82Z"/>
    <path class="cls-1" d="M624.54,226.57c-.56,0-1.02-.18-1.39-.55-.37-.37-.56-.82-.56-1.35s.19-1.02.56-1.4c.37-.38.83-.57,1.39-.57s.99.19,1.38.57c.38.38.57.85.57,1.4s-.19.98-.57,1.35c-.38.37-.84.55-1.38.55ZM623.06,229.28h2.94v15.39h-2.94v-15.39Z"/>
    <path class="cls-1" d="M630.88,222.51h2.91v22.16h-2.91v-22.16Z"/>
    <path class="cls-1" d="M640.16,226.57c-.56,0-1.02-.18-1.39-.55-.37-.37-.56-.82-.56-1.35s.19-1.02.56-1.4c.37-.38.83-.57,1.39-.57s.99.19,1.38.57c.38.38.57.85.57,1.4s-.19.98-.57,1.35c-.38.37-.84.55-1.38.55ZM638.68,229.28h2.94v15.39h-2.94v-15.39Z"/>
    <path class="cls-1" d="M653.21,244.89c-1.48,0-2.8-.34-3.94-1.03-1.14-.69-2.04-1.64-2.69-2.85-.65-1.21-.97-2.6-.97-4.15s.32-2.83.96-4c.64-1.17,1.52-2.09,2.64-2.77,1.12-.68,2.4-1.02,3.82-1.02s2.72.31,3.83.94c1.11.63,1.98,1.5,2.6,2.62s.92,2.41.9,3.86c0,.25-.01.5-.03.75-.02.26-.05.54-.09.85h-11.44c.06.82.29,1.54.7,2.17.4.63.92,1.11,1.55,1.46s1.35.52,2.15.52c1.03,0,1.93-.2,2.69-.6.76-.4,1.3-.94,1.61-1.62l2.54.89c-.62,1.25-1.52,2.23-2.71,2.92-1.19.7-2.55,1.05-4.1,1.05ZM657.17,235.59c0-.74-.18-1.41-.56-2-.37-.59-.87-1.06-1.5-1.4-.63-.34-1.33-.51-2.12-.51-.7,0-1.35.17-1.93.51-.59.34-1.08.8-1.48,1.39-.4.58-.65,1.26-.76,2.02h8.35Z"/>
    <path class="cls-1" d="M663.91,229.28h2.66l.19,2.06c.43-.53.93-.98,1.5-1.34.57-.36,1.19-.61,1.86-.75.67-.14,1.37-.13,2.09.03v2.74c-.68-.16-1.34-.18-1.98-.06-.64.12-1.21.38-1.72.78s-.91.93-1.22,1.59c-.31.66-.46,1.45-.46,2.37v7.97h-2.91v-15.39Z"/>
    <path class="cls-1" d="M690.5,244.89c-1.48,0-2.8-.34-3.94-1.03-1.14-.69-2.04-1.64-2.69-2.85-.65-1.21-.97-2.6-.97-4.15s.32-2.83.96-4c.64-1.17,1.52-2.09,2.64-2.77,1.12-.68,2.4-1.02,3.82-1.02s2.72.31,3.83.94c1.11.63,1.98,1.5,2.6,2.62s.92,2.41.9,3.86c0,.25-.01.5-.03.75-.02.26-.05.54-.09.85h-11.44c.06.82.29,1.54.7,2.17.4.63.92,1.11,1.55,1.46s1.35.52,2.15.52c1.03,0,1.93-.2,2.69-.6.76-.4,1.3-.94,1.61-1.62l2.54.89c-.62,1.25-1.52,2.23-2.71,2.92-1.19.7-2.55,1.05-4.1,1.05ZM694.46,235.59c0-.74-.18-1.41-.56-2-.37-.59-.87-1.06-1.5-1.4-.63-.34-1.33-.51-2.12-.51-.7,0-1.35.17-1.93.51-.59.34-1.08.8-1.48,1.39-.4.58-.65,1.26-.76,2.02h8.35ZM693.13,222.48v2.34l-5.97,3.05v-2l5.97-3.39Z"/>
    <path class="cls-1" d="M703.8,242.06l.31-.09v8.86h-2.91v-21.54h2.66l.22,2.31c.49-.7,1.18-1.29,2.06-1.79.88-.49,1.94-.74,3.2-.74,1.36,0,2.57.33,3.62.98,1.05.66,1.88,1.57,2.49,2.75.61,1.18.91,2.57.91,4.17s-.29,2.97-.88,4.15c-.59,1.19-1.41,2.11-2.46,2.77-1.05.66-2.28.98-3.68.98s-2.48-.27-3.42-.82c-.94-.54-1.64-1.22-2.12-2.02ZM713.2,236.98c0-1.58-.42-2.85-1.25-3.82s-1.92-1.45-3.26-1.45c-.87,0-1.64.21-2.32.62-.68.41-1.23,1.01-1.64,1.79-.41.78-.62,1.73-.62,2.86s.21,2.05.62,2.83c.41.78.96,1.38,1.64,1.8.68.42,1.45.63,2.32.63,1.34,0,2.43-.48,3.26-1.45.83-.96,1.25-2.24,1.25-3.82Z"/>
    <path class="cls-1" d="M719.88,222.51h2.91v8.46c.5-.59,1.13-1.06,1.92-1.4.78-.34,1.65-.51,2.6-.51,1.15,0,2.17.25,3.05.75.88.5,1.56,1.25,2.06,2.25.49,1,.74,2.23.74,3.71v8.89h-3.06v-8.53c0-1.44-.3-2.53-.9-3.29s-1.47-1.14-2.63-1.14-2.12.39-2.78,1.17c-.66.78-.99,1.92-.99,3.42v8.37h-2.91v-22.16Z"/>
    <path class="cls-1" d="M744.06,244.89c-1.48,0-2.8-.34-3.94-1.03-1.14-.69-2.04-1.64-2.69-2.85-.65-1.21-.97-2.6-.97-4.15s.32-2.83.96-4c.64-1.17,1.52-2.09,2.64-2.77,1.12-.68,2.4-1.02,3.82-1.02s2.72.31,3.83.94c1.11.63,1.98,1.5,2.6,2.62s.92,2.41.9,3.86c0,.25-.01.5-.03.75-.02.26-.05.54-.09.85h-11.44c.06.82.29,1.54.7,2.17.4.63.92,1.11,1.55,1.46s1.35.52,2.15.52c1.03,0,1.93-.2,2.69-.6.76-.4,1.3-.94,1.61-1.62l2.54.89c-.62,1.25-1.52,2.23-2.71,2.92-1.19.7-2.55,1.05-4.1,1.05ZM748.02,235.59c0-.74-.18-1.41-.56-2-.37-.59-.87-1.06-1.5-1.4-.63-.34-1.33-.51-2.12-.51-.7,0-1.35.17-1.93.51-.59.34-1.08.8-1.48,1.39-.4.58-.65,1.26-.76,2.02h8.35ZM746.69,222.48v2.34l-5.97,3.05v-2l5.97-3.39Z"/>
    <path class="cls-1" d="M754.76,229.28h2.66l.19,1.79c.49-.62,1.11-1.1,1.86-1.46.74-.36,1.58-.54,2.5-.54,1.05,0,2,.23,2.86.69.86.46,1.53,1.14,2.03,2.05.52-.9,1.25-1.59,2.2-2.05.95-.46,1.99-.69,3.12-.69s2.21.25,3.11.75c.9.5,1.59,1.25,2.09,2.23s.74,2.22.74,3.69v8.93h-2.94v-8.56c0-1.44-.31-2.53-.93-3.28-.62-.75-1.5-1.12-2.66-1.12s-2.1.39-2.78,1.17c-.68.78-1.02,1.92-1.02,3.42v8.37h-2.94v-8.56c0-1.44-.29-2.53-.87-3.28-.58-.75-1.44-1.12-2.6-1.12s-2.09.39-2.74,1.17c-.65.78-.98,1.92-.98,3.42v8.37h-2.91v-15.39Z"/>
    <path class="cls-1" d="M789,244.89c-1.48,0-2.8-.34-3.94-1.03-1.14-.69-2.04-1.64-2.69-2.85-.65-1.21-.97-2.6-.97-4.15s.32-2.83.96-4c.64-1.17,1.52-2.09,2.64-2.77,1.12-.68,2.4-1.02,3.82-1.02s2.72.31,3.83.94c1.11.63,1.98,1.5,2.6,2.62s.92,2.41.9,3.86c0,.25-.01.5-.03.75-.02.26-.05.54-.09.85h-11.44c.06.82.29,1.54.7,2.17.4.63.92,1.11,1.55,1.46s1.35.52,2.15.52c1.03,0,1.93-.2,2.69-.6.76-.4,1.3-.94,1.61-1.62l2.54.89c-.62,1.25-1.52,2.23-2.71,2.92-1.19.7-2.55,1.05-4.1,1.05ZM792.96,235.59c0-.74-.18-1.41-.56-2-.37-.59-.87-1.06-1.5-1.4-.63-.34-1.33-.51-2.12-.51-.7,0-1.35.17-1.93.51-.59.34-1.08.8-1.48,1.39-.4.58-.65,1.26-.76,2.02h8.35ZM785.66,222.48l5.97,3.39v2l-5.97-3.11v-2.28Z"/>
    <path class="cls-1" d="M799.7,229.28h2.66l.19,2.06c.43-.53.93-.98,1.5-1.34.57-.36,1.19-.61,1.86-.75.67-.14,1.37-.13,2.09.03v2.74c-.68-.16-1.34-.18-1.98-.06-.64.12-1.21.38-1.72.78s-.91.93-1.22,1.59c-.31.66-.46,1.45-.46,2.37v7.97h-2.91v-15.39Z"/>
    <path class="cls-1" d="M817.32,244.89c-1.48,0-2.8-.34-3.94-1.03-1.14-.69-2.04-1.64-2.69-2.85-.65-1.21-.97-2.6-.97-4.15s.32-2.83.96-4c.64-1.17,1.52-2.09,2.64-2.77,1.12-.68,2.4-1.02,3.82-1.02s2.72.31,3.83.94c1.11.63,1.98,1.5,2.6,2.62s.92,2.41.9,3.86c0,.25-.01.5-.03.75-.02.26-.05.54-.09.85h-11.44c.06.82.29,1.54.7,2.17.4.63.92,1.11,1.55,1.46s1.35.52,2.15.52c1.03,0,1.93-.2,2.69-.6.76-.4,1.3-.94,1.61-1.62l2.54.89c-.62,1.25-1.52,2.23-2.71,2.92-1.19.7-2.55,1.05-4.1,1.05ZM821.28,235.59c0-.74-.18-1.41-.56-2-.37-.59-.87-1.06-1.5-1.4-.63-.34-1.33-.51-2.12-.51-.7,0-1.35.17-1.93.51-.59.34-1.08.8-1.48,1.39-.4.58-.65,1.26-.76,2.02h8.35Z"/>
    <path class="cls-1" d="M598.6,279.85l-.25-2.25c-.47.78-1.09,1.38-1.84,1.8-.75.42-1.73.63-2.92.63-1.11,0-2.06-.18-2.85-.54s-1.39-.86-1.81-1.51c-.42-.65-.63-1.4-.63-2.26,0-1.29.48-2.37,1.45-3.22s2.37-1.38,4.21-1.59l4.39-.49v-1.2c0-.66-.27-1.22-.8-1.68-.54-.46-1.31-.69-2.32-.69-.95,0-1.75.22-2.41.66-.66.44-1.1,1.09-1.33,1.95l-2.6-.92c.39-1.35,1.16-2.41,2.3-3.17s2.53-1.14,4.16-1.14c1.94,0,3.41.48,4.42,1.45,1.01.96,1.52,2.24,1.52,3.82v10.34h-2.69ZM598.35,272.8l-4.24.52c-.91.12-1.59.37-2.04.75-.45.38-.68.88-.68,1.49,0,.58.22,1.05.67,1.43s1.07.57,1.87.57c.99,0,1.81-.19,2.47-.55s1.15-.89,1.47-1.55c.32-.67.48-1.44.48-2.32v-.34ZM592.01,257.66l5.97,3.39v2l-5.97-3.11v-2.28Z"/>
    <path class="cls-1" d="M616.07,261.75c-.56,0-1.02-.18-1.39-.55-.37-.37-.56-.82-.56-1.35s.19-1.02.56-1.4c.37-.38.83-.57,1.39-.57s.99.19,1.38.57c.38.38.57.85.57,1.4s-.19.98-.57,1.35c-.38.37-.84.55-1.38.55ZM614.58,264.46h2.94v15.39h-2.94v-15.39Z"/>
    <path class="cls-1" d="M622.41,264.46h2.66l.19,1.79c.49-.62,1.11-1.1,1.86-1.46.74-.36,1.58-.54,2.5-.54,1.05,0,2,.23,2.86.69.86.46,1.53,1.14,2.03,2.05.52-.9,1.25-1.59,2.2-2.05.95-.46,1.99-.69,3.12-.69s2.21.25,3.11.75c.9.5,1.59,1.25,2.09,2.23s.74,2.22.74,3.69v8.93h-2.94v-8.56c0-1.44-.31-2.53-.93-3.28-.62-.75-1.5-1.12-2.66-1.12s-2.1.39-2.78,1.17c-.68.78-1.02,1.92-1.02,3.42v8.37h-2.94v-8.56c0-1.44-.29-2.53-.87-3.28-.58-.75-1.44-1.12-2.6-1.12s-2.09.39-2.74,1.17c-.65.78-.98,1.92-.98,3.42v8.37h-2.91v-15.39Z"/>
    <path class="cls-1" d="M652.53,277.23l.31-.09v8.86h-2.91v-21.54h2.66l.22,2.31c.49-.7,1.18-1.29,2.06-1.79.88-.49,1.94-.74,3.2-.74,1.36,0,2.57.33,3.62.98,1.05.66,1.88,1.57,2.49,2.75.61,1.18.91,2.57.91,4.17s-.29,2.97-.88,4.15c-.59,1.19-1.41,2.11-2.46,2.77-1.05.66-2.28.98-3.68.98s-2.48-.27-3.42-.82c-.94-.54-1.64-1.22-2.12-2.02ZM661.93,272.15c0-1.58-.42-2.85-1.25-3.82s-1.92-1.45-3.26-1.45c-.87,0-1.64.21-2.32.62-.68.41-1.23,1.01-1.64,1.79-.41.78-.62,1.73-.62,2.86s.21,2.05.62,2.83c.41.78.96,1.38,1.64,1.8.68.42,1.45.63,2.32.63,1.34,0,2.43-.48,3.26-1.45.83-.96,1.25-2.24,1.25-3.82Z"/>
    <path class="cls-1" d="M678.04,279.85l-.25-2.25c-.47.78-1.09,1.38-1.84,1.8-.75.42-1.73.63-2.92.63-1.11,0-2.06-.18-2.85-.54s-1.39-.86-1.81-1.51c-.42-.65-.63-1.4-.63-2.26,0-1.29.48-2.37,1.45-3.22s2.37-1.38,4.21-1.59l4.39-.49v-1.2c0-.66-.27-1.22-.8-1.68-.54-.46-1.31-.69-2.32-.69-.95,0-1.75.22-2.41.66-.66.44-1.1,1.09-1.33,1.95l-2.6-.92c.39-1.35,1.16-2.41,2.3-3.17s2.53-1.14,4.16-1.14c1.94,0,3.41.48,4.42,1.45,1.01.96,1.52,2.24,1.52,3.82v10.34h-2.69ZM677.79,272.8l-4.24.52c-.91.12-1.59.37-2.04.75-.45.38-.68.88-.68,1.49,0,.58.22,1.05.67,1.43s1.07.57,1.87.57c.99,0,1.81-.19,2.47-.55s1.15-.89,1.47-1.55c.32-.67.48-1.44.48-2.32v-.34Z"/>
    <path class="cls-1" d="M691.52,280.06c-1.48,0-2.79-.33-3.93-1s-2.02-1.59-2.64-2.76c-.63-1.17-.94-2.53-.94-4.09s.32-2.97.96-4.15c.64-1.19,1.53-2.12,2.66-2.8,1.13-.68,2.45-1.02,3.96-1.02,1.59,0,2.98.37,4.19,1.11s2.08,1.73,2.61,2.99l-2.63.92c-.31-.72-.83-1.29-1.56-1.72-.73-.43-1.56-.65-2.49-.65s-1.76.22-2.44.66-1.21,1.06-1.58,1.85-.56,1.72-.56,2.79c0,1.6.41,2.87,1.24,3.82.82.94,1.94,1.42,3.34,1.42.93,0,1.76-.2,2.49-.62.73-.41,1.28-.97,1.65-1.69l2.6.92c-.58,1.23-1.48,2.21-2.72,2.94-1.24.73-2.64,1.09-4.21,1.09Z"/>
    <path class="cls-1" d="M702.47,264.46v-4.31h2.94v4.31h3.87v2.59h-3.87v7.57c0,.94.19,1.61.57,2,.38.39.86.61,1.45.66.59.05,1.2.04,1.84-.05v2.49c-.85.18-1.67.24-2.49.17-.81-.07-1.55-.3-2.19-.69-.65-.39-1.17-.96-1.55-1.71-.38-.75-.57-1.71-.57-2.88v-7.57h-2.23v-2.59h2.23Z"/>
    <path class="cls-1" d="M732.84,267.07l-.34.09v-9.48h2.94v22.16h-2.66l-.22-2.31c-.52.7-1.21,1.29-2.09,1.78-.88.49-1.94.74-3.2.74-1.4,0-2.62-.33-3.66-.98-1.04-.66-1.86-1.58-2.44-2.77-.59-1.19-.88-2.57-.88-4.15s.29-2.97.88-4.15,1.4-2.11,2.44-2.77c1.04-.66,2.26-.98,3.66-.98s2.48.27,3.42.82c.94.54,1.66,1.22,2.15,2.02ZM723.41,272.15c0,1.58.41,2.85,1.24,3.82.82.96,1.93,1.45,3.31,1.45.85,0,1.61-.2,2.29-.62s1.23-1.01,1.64-1.8c.41-.79.62-1.74.62-2.85s-.21-2.05-.62-2.83c-.41-.78-.96-1.38-1.64-1.8s-1.44-.63-2.29-.63c-1.36,0-2.46.48-3.29,1.45-.83.96-1.25,2.24-1.25,3.82Z"/>
    <path class="cls-1" d="M752.78,279.85h-2.66l-.22-1.82c-.5.66-1.12,1.16-1.87,1.51-.75.35-1.59.52-2.52.52-1.2,0-2.24-.25-3.12-.75-.89-.5-1.57-1.24-2.06-2.22s-.73-2.19-.73-3.65v-8.99h2.94v8.62c0,1.42.29,2.49.88,3.23s1.48,1.11,2.68,1.11,2.1-.38,2.77-1.14c.67-.76,1.01-1.89,1.01-3.39v-8.43h2.91v15.39Z"/>
    <path class="cls-1" d="M757.21,264.46h2.66l.19,2.06c.43-.53.93-.98,1.5-1.34.57-.36,1.19-.61,1.86-.75.67-.14,1.37-.13,2.09.03v2.74c-.68-.16-1.34-.18-1.98-.06-.64.12-1.21.38-1.72.78s-.91.93-1.22,1.59c-.31.66-.46,1.45-.46,2.37v7.97h-2.91v-15.39Z"/>
    <path class="cls-1" d="M777.86,279.85l-.25-2.25c-.47.78-1.09,1.38-1.84,1.8-.75.42-1.73.63-2.92.63-1.11,0-2.06-.18-2.85-.54s-1.39-.86-1.81-1.51c-.42-.65-.63-1.4-.63-2.26,0-1.29.48-2.37,1.45-3.22s2.37-1.38,4.21-1.59l4.39-.49v-1.2c0-.66-.27-1.22-.8-1.68-.54-.46-1.31-.69-2.32-.69-.95,0-1.75.22-2.41.66-.66.44-1.1,1.09-1.33,1.95l-2.6-.92c.39-1.35,1.16-2.41,2.3-3.17s2.53-1.14,4.16-1.14c1.94,0,3.41.48,4.42,1.45,1.01.96,1.52,2.24,1.52,3.82v10.34h-2.69ZM777.62,272.8l-4.24.52c-.91.12-1.59.37-2.04.75-.45.38-.68.88-.68,1.49,0,.58.22,1.05.67,1.43s1.07.57,1.87.57c.99,0,1.81-.19,2.47-.55s1.15-.89,1.47-1.55c.32-.67.48-1.44.48-2.32v-.34Z"/>
    <path class="cls-1" d="M787.33,267.07c.47-.8,1.18-1.47,2.12-2.02.94-.54,2.08-.82,3.42-.82s2.63.33,3.68.98c1.05.66,1.87,1.58,2.46,2.77s.88,2.58.88,4.15-.3,2.97-.9,4.15c-.6,1.19-1.42,2.11-2.47,2.77-1.05.66-2.27.98-3.65.98-1.26,0-2.32-.25-3.2-.74-.88-.49-1.56-1.09-2.06-1.78l-.22,2.31h-2.66v-22.16h2.91v9.48l-.31-.09ZM796.73,272.15c0-1.58-.42-2.85-1.25-3.82s-1.92-1.45-3.26-1.45c-.87,0-1.64.21-2.32.63s-1.23,1.02-1.64,1.8c-.41.78-.62,1.72-.62,2.83s.21,2.06.62,2.85c.41.79.96,1.39,1.64,1.8s1.45.62,2.32.62c1.34,0,2.43-.48,3.26-1.45.83-.96,1.25-2.24,1.25-3.82Z"/>
    <path class="cls-1" d="M803.28,257.69h2.91v22.16h-2.91v-22.16Z"/>
    <path class="cls-1" d="M817.32,280.06c-1.48,0-2.8-.34-3.94-1.03-1.14-.69-2.04-1.64-2.69-2.85-.65-1.21-.97-2.6-.97-4.15s.32-2.83.96-4c.64-1.17,1.52-2.09,2.64-2.77,1.12-.68,2.4-1.02,3.82-1.02s2.72.31,3.83.94c1.11.63,1.98,1.5,2.6,2.62s.92,2.41.9,3.86c0,.25-.01.5-.03.75-.02.26-.05.54-.09.85h-11.44c.06.82.29,1.54.7,2.17.4.63.92,1.11,1.55,1.46s1.35.52,2.15.52c1.03,0,1.93-.2,2.69-.6.76-.4,1.3-.94,1.61-1.62l2.54.89c-.62,1.25-1.52,2.23-2.71,2.92-1.19.7-2.55,1.05-4.1,1.05ZM821.28,270.77c0-.74-.18-1.41-.56-2-.37-.59-.87-1.06-1.5-1.4-.63-.34-1.33-.51-2.12-.51-.7,0-1.35.17-1.93.51-.59.34-1.08.8-1.48,1.39-.4.58-.65,1.26-.76,2.02h8.35Z"/>
  </g>
</svg>